<svg id="Layer_1" data-name="Layer 1" xmlns="http://www.w3.org/2000/svg" viewBox="0 0 145.79 55"><defs><style>.cls-1{fill:#f1f0f0;fill-rule:evenodd;}</style></defs><path class="cls-1" d="M959.29,538.49a13.13,13.13,0,0,0,5-.92,12.23,12.23,0,0,0,4-2.57,11.81,11.81,0,0,0,2.62-3.89,12.15,12.15,0,0,0,.89-3.41,26.3,26.3,0,0,0,.05-3.47H959.35l-2.23,4.48H966a5.88,5.88,0,0,1-2.33,3.47,7.12,7.12,0,0,1-4.35,1.3,7.36,7.36,0,0,1-3-.63,7.72,7.72,0,0,1-4.09-4.21,7.7,7.7,0,0,1-.58-3.07,7.85,7.85,0,0,1,.61-3.06,7.61,7.61,0,0,1,7.14-4.74,7.9,7.9,0,0,1,3.91,1,6.55,6.55,0,0,1,2.63,2.78l4.94-2.32a11.32,11.32,0,0,0-4.56-4.74,13.78,13.78,0,0,0-6.86-1.73,13.23,13.23,0,0,0-12.24,7.81,12.06,12.06,0,0,0-1.08,5,12.23,12.23,0,0,0,1,5,13.23,13.23,0,0,0,2.79,4.11,12.83,12.83,0,0,0,4.17,2.79A13.23,13.23,0,0,0,959.29,538.49Zm-24.06,29.24a13.3,13.3,0,0,0,5-.91,12.13,12.13,0,0,0,4-2.57,11.94,11.94,0,0,0,2.63-3.89,12.32,12.32,0,0,0,.88-3.41,23.38,23.38,0,0,0,0-3.48H935.28L933.05,558H942a5.92,5.92,0,0,1-2.34,3.46,7.12,7.12,0,0,1-4.35,1.31,7.52,7.52,0,0,1-3-.63,7.84,7.84,0,0,1-4.67-7.28,8.08,8.08,0,0,1,.61-3.07,7.9,7.9,0,0,1,1.67-2.49,7.78,7.78,0,0,1,2.45-1.65,7.41,7.41,0,0,1,3-.59,7.79,7.79,0,0,1,3.9,1,6.52,6.52,0,0,1,2.63,2.77l4.94-2.31a11.32,11.32,0,0,0-4.56-4.74A13.86,13.86,0,0,0,935.4,542a13.21,13.21,0,0,0-12.24,7.82,12,12,0,0,0-1.08,5,12.45,12.45,0,0,0,1,5,13.41,13.41,0,0,0,2.79,4.11,13.19,13.19,0,0,0,4.17,2.78A13.32,13.32,0,0,0,935.23,567.73Zm54.7-25.31V567.3h-5.5l-11.87-16.17V567.3H967.3V544.74l-1.2-2.32h6.8l11.76,16.39V542.42Zm-102.44,0h6.7v20h10.07l-1.39,4.87H887.49l1.27-2.57V545Zm18.63,24.89h15v-4.86h-9.54V557h7.37l1.34-4.68h-8.71v-5h9.54v-4.85h-15Zm58.56,0h-15V542.41h15v4.85h-9.53v5h8.7L962.52,557h-7.37v5.46h9.53Zm-77.19-54.13h6.7v20h10.07l-1.39,4.87H887.49l1.27-2.57V515.74Zm18.63,24.89h15v-4.87h-9.54v-5.46h7.37l1.34-4.68h-8.71v-5h9.54v-4.85h-15Zm105.38,0h-15V513.17h15V518H1002v5h8.7l-1.33,4.68H1002v5.46h9.53Zm-73.59-24.89h-7.75l1.64,3.17-8.95,21.72h5.57l1.9-4.85H940.4l2,4.85H948Zm-5.73,15.28,3.28-8.37,3.14,8.37Zm93.56,2.76V520h6.93v2.54h-4.12V525h3.6l-.7,2.46h-2.9v3.79Zm-6.94-11.42a5.82,5.82,0,1,0,5.93,5.82A5.88,5.88,0,0,0,1018.8,519.79Zm0,8.94a3.12,3.12,0,1,1,3.17-3.12A3.15,3.15,0,0,1,1018.8,528.73Zm-39.13,9a12.91,12.91,0,0,0,8.56,0,8.72,8.72,0,0,0,3.19-2.07,9.2,9.2,0,0,0,2-3.27,12.28,12.28,0,0,0,.71-4.26v-15h-5.52v14.7a6.06,6.06,0,0,1-1.19,4,4.88,4.88,0,0,1-7,0,6.06,6.06,0,0,1-1.2-4v-14.7h-5.51v15a12.28,12.28,0,0,0,.7,4.26,9.23,9.23,0,0,0,2,3.26A8.54,8.54,0,0,0,979.67,537.76Zm46.46,14.78-3.43-.64c-1.54-.29-2.39-1.14-2.39-2.39,0-1.7,1.78-2.72,3.51-2.72.58,0,3.51.15,4.11,3l4.72-2.26c-.69-2-2.78-5.55-8.87-5.55-4.91,0-8.9,3.53-8.9,7.87,0,3.68,2.51,6.38,6.72,7.22l3.43.68c1.7.33,2.71,1.27,2.71,2.52,0,1.62-1.4,2.6-3.65,2.62a5.31,5.31,0,0,1-5.27-3.91l-4.54,2.48c1,3.32,4.25,6.28,9.78,6.28a9.67,9.67,0,0,0,6.82-2.43,7.35,7.35,0,0,0,2.4-5.34C1033.27,556.22,1030.54,553.38,1026.13,552.54ZM1010,546.07a12.49,12.49,0,0,1,2.77,3.94,12.31,12.31,0,0,1,0,9.79,12.18,12.18,0,0,1-2.77,3.93,13.07,13.07,0,0,1-4.11,2.62,13.26,13.26,0,0,1-5,.95h-8.58V542.41h8.59a15.85,15.85,0,0,1,5,1A13.13,13.13,0,0,1,1010,546.07Zm-4,14.08a7.29,7.29,0,0,0,1.57-2.34,7.48,7.48,0,0,0,0-5.8,7.23,7.23,0,0,0-3.94-3.94,7.45,7.45,0,0,0-2.94-.58h-3v14.82h3a7.46,7.46,0,0,0,2.94-.59A7.6,7.6,0,0,0,1006.05,560.15Z" transform="translate(-887.49 -512.74)"/></svg>