<svg height="140.308" width="500" xmlns="http://www.w3.org/2000/svg"><path d="M83.998.28 0 39.18l20.93 79.651 15.928-1.956-4.38-50.082 5.23-2.33 9.032 51.196 27.223-3.342-4.84-55.279 5.18-2.304 9.933 56.324 27.537-3.385-5.298-60.593 5.238-2.33 10.86 61.597 27.223-3.343V16.762Zm1.973 120.805 1.386 7.84 62.44 10.41v-26.091l-63.792 7.84zm122.88-16.346v10.741h13.24a12.62 12.62 0 0 1-1.632 6.217 11.056 11.056 0 0 1-4.762 4.346 17.009 17.009 0 0 1-7.57 1.53 14.908 14.908 0 0 1-8.504-2.38 15.197 15.197 0 0 1-5.477-6.923 28.115 28.115 0 0 1-1.93-10.996 27.052 27.052 0 0 1 1.973-10.894 15.427 15.427 0 0 1 5.528-6.804 14.687 14.687 0 0 1 8.351-2.364 16.422 16.422 0 0 1 4.558.604 12.034 12.034 0 0 1 3.683 1.777 10.988 10.988 0 0 1 2.704 2.798 13.275 13.275 0 0 1 1.701 3.776h14.687a23.149 23.149 0 0 0-2.942-8.743 24.527 24.527 0 0 0-5.996-6.888 27.724 27.724 0 0 0-8.428-4.499 32.24 32.24 0 0 0-10.256-1.582 31.738 31.738 0 0 0-11.906 2.211 27.724 27.724 0 0 0-9.661 6.472 29.765 29.765 0 0 0-6.472 10.384 39.248 39.248 0 0 0-2.322 13.981q0 10.155 3.861 17.51a27.554 27.554 0 0 0 10.792 11.286 33.881 33.881 0 0 0 30.48.714 24.144 24.144 0 0 0 9.925-9.354q3.614-6.115 3.606-14.628v-8.3zm182.87 34.707V75.289h43.941V87.16H406.22v14.253h23.804v11.872H406.22v14.288h29.51v11.872zm86.6-45.329a7.654 7.654 0 0 0-3.011-5.647c-1.778-1.352-4.253-2.024-7.39-2.024a14.143 14.143 0 0 0-5.324.85 7.33 7.33 0 0 0-3.258 2.365 5.732 5.732 0 0 0-1.13 3.402 5.273 5.273 0 0 0 .671 2.798 6.183 6.183 0 0 0 2.041 2.083 14.066 14.066 0 0 0 3.147 1.523 34.137 34.137 0 0 0 3.946 1.114l5.638 1.31a40.132 40.132 0 0 1 8.037 2.619 23.353 23.353 0 0 1 6.123 3.98 16.022 16.022 0 0 1 3.895 5.434 17.323 17.323 0 0 1 1.37 7.05 17.562 17.562 0 0 1-3.011 10.299 19.186 19.186 0 0 1-8.632 6.676 35.132 35.132 0 0 1-13.548 2.347 36.305 36.305 0 0 1-13.751-2.39 19.747 19.747 0 0 1-9.117-7.211q-3.257-4.814-3.402-12.008h13.973a9.083 9.083 0 0 0 5.996 8.453 16.473 16.473 0 0 0 6.157 1.071 15.682 15.682 0 0 0 5.664-.927 8.504 8.504 0 0 0 3.682-2.55 6.14 6.14 0 0 0 1.335-3.81 5.239 5.239 0 0 0-1.207-3.403 9.236 9.236 0 0 0-3.521-2.39 35.778 35.778 0 0 0-5.86-1.82l-6.863-1.658q-8.206-1.956-12.952-6.174-4.745-4.218-4.711-11.43a16.89 16.89 0 0 1 3.163-10.307 21.04 21.04 0 0 1 8.785-6.897 31.245 31.245 0 0 1 12.757-2.475 30.293 30.293 0 0 1 12.688 2.475 19.926 19.926 0 0 1 8.428 6.923 18.318 18.318 0 0 1 3.062 10.307zm-96.942 45.329h-14.347V90.673l-1.471-.017-14.492 48.79h-14.338l-14.1-48.79-1.829.017v48.773h-14.347V75.289h24.382l12.315 42.998h1.488l12.314-42.998h24.425zm-97.511 0h15.537l-21.541-64.149h-19.688L236.6 139.446h15.563l4.193-14.067h23.319zm-24.178-25.258 6.99-23.515h2.637l7.024 23.515zm236.915-32.113A3.402 3.402 0 0 1 493.483 80a3.402 3.402 0 0 1 0-2.636 3.402 3.402 0 0 1 .723-1.08 3.614 3.614 0 0 1 1.08-.732 3.53 3.53 0 0 1 2.637 0 3.512 3.512 0 0 1 1.08.732 3.47 3.47 0 0 1 .731 1.08 3.402 3.402 0 0 1 0 2.636 3.47 3.47 0 0 1-.731 1.08 3.402 3.402 0 0 1-1.08.732 3.402 3.402 0 0 1-1.318.263zm0-.927a2.415 2.415 0 0 0 1.25-.331 2.5 2.5 0 0 0 .893-.85 2.492 2.492 0 0 0 0-2.484 2.551 2.551 0 0 0-.902-.85 2.492 2.492 0 0 0-2.483 0 2.551 2.551 0 0 0-.85.85 2.432 2.432 0 0 0 0 2.483 2.551 2.551 0 0 0 .85.85 2.407 2.407 0 0 0 1.242.332zm-1.242-.978v-3.12h1.514a1.293 1.293 0 0 1 .587.127.961.961 0 0 1 .4.357 1.055 1.055 0 0 1 .144.561.987.987 0 0 1-.153.561.85.85 0 0 1-.408.35 1.327 1.327 0 0 1-.596.118h-1.02v-.612h.85a.442.442 0 0 0 .306-.102.425.425 0 0 0 .12-.315.4.4 0 0 0-.12-.315.442.442 0 0 0-.306-.102h-.468v2.492zm2.033-1.429.697 1.43h-.944l-.638-1.43zM240.172.875h14.5v64.157h-14.5zm83.36 32.079q0 10.562-4.006 17.86a27.784 27.784 0 0 1-10.877 11.2 32.801 32.801 0 0 1-30.879 0 27.852 27.852 0 0 1-10.877-11.226q-4.006-7.365-4.006-17.86 0-10.494 4.006-17.901a27.784 27.784 0 0 1 10.843-11.175 32.87 32.87 0 0 1 30.88 0 27.784 27.784 0 0 1 10.876 11.2q4.006 7.348 4.006 17.902m-14.755 0a28.362 28.362 0 0 0-1.897-11.056 14.857 14.857 0 0 0-5.383-6.803 15.793 15.793 0 0 0-16.54 0 14.942 14.942 0 0 0-5.401 6.803 32.818 32.818 0 0 0 0 22.112 14.874 14.874 0 0 0 5.4 6.803 15.793 15.793 0 0 0 16.541 0 14.79 14.79 0 0 0 5.383-6.803 28.405 28.405 0 0 0 1.897-11.056M209.7 42.666l7.45 22.366h15.911L224.78 40.94h-11.251l-.672-2.076c2.143-.416 5.809-1.063 9.057-3.274a17.009 17.009 0 0 0 7.442-13.938 20.538 20.538 0 0 0-2.773-10.843 18.625 18.625 0 0 0-7.96-7.348 27.69 27.69 0 0 0-12.45-2.552h-25.88v64.123h14.51V42.666Zm-.272-13.275a16.456 16.456 0 0 1-6.174 1.003H194.8v-17.74h8.428a15.886 15.886 0 0 1 6.166 1.055 7.756 7.756 0 0 1 3.742 3.146 8.504 8.504 0 0 1 1.275 4.797 8.207 8.207 0 0 1-1.258 4.72 7.535 7.535 0 0 1-3.725 3.019M324.9.875v11.907h24.918l.68 2.083c-2.109.408-5.672 1.038-8.87 3.147v47.037h14.347V12.748h16.686V.84Z" fill="#eb0029"/></svg>