<svg id="Layer_1" data-name="Layer 1" xmlns="http://www.w3.org/2000/svg" viewBox="0 0 146 48"><defs><style>.cls-1{fill:#f1f0f0;}</style></defs><path class="cls-1" d="M1118,527.36c-.22.83-2.2,1.58-3.07,1.58h-37c-3.44,0-7.14.58-9,1.75a8.48,8.48,0,0,0-2.93,3,.28.28,0,0,1-.49,0,8.48,8.48,0,0,0-2.93-3c-1.83-1.17-5.52-1.75-9-1.75h-38.76c-.86,0-2.85-.75-3.06-1.58Zm-100.2-5.8a2.85,2.85,0,0,1-2.77-3v-18a4.25,4.25,0,0,1,1-2.47.28.28,0,0,0-.18-.48H1010a.28.28,0,0,0-.18.48,4.32,4.32,0,0,1,1,2.47V518c0,4.09,2.77,7.62,6.92,7.62h.06c4.16,0,6.93-3.53,6.93-7.62V500.56a4.37,4.37,0,0,1,1-2.47.28.28,0,0,0-.17-.48h-5.83a.28.28,0,0,0-.17.48,4.23,4.23,0,0,1,1,2.47v18a2.85,2.85,0,0,1-2.76,3Zm-19.31-3v7.19a5.51,5.51,0,0,0,1.4,2.82.2.2,0,0,1-.17.33h-7.17a.21.21,0,0,1-.18-.33,5.43,5.43,0,0,0,1.4-2.82V500.48a9.85,9.85,0,0,0-1.52-3.43.28.28,0,0,1,.24-.44h8.64a14.66,14.66,0,0,1,3.62.44,5.35,5.35,0,0,1,3.7,3.29s2.16,5.44-3.54,12.64l4.68,13.08a5.94,5.94,0,0,0,1.67,2.52.21.21,0,0,1-.15.36h-7.15a.2.2,0,0,1-.19-.29c.34-.73,1.13-1.75.9-2.71l-3.43-9.68Zm0-18.23V512.9c4.34-3.08,5.53-5.85,5.43-9.26s-3-3.27-3-3.27Zm45.71,24.85a.28.28,0,0,0,.19-.46,5.08,5.08,0,0,1-.86-2.56V500.58a5.18,5.18,0,0,1,1.06-2.53.28.28,0,0,0-.21-.44h-5.55a.29.29,0,0,0-.22.44,5.13,5.13,0,0,1,1.07,2.52v18.92l-5.2-21.67a.28.28,0,0,0-.27-.21h-7a.28.28,0,0,0-.18.48,4.5,4.5,0,0,1,1,2.48V522.2a5.28,5.28,0,0,1-1,2.56.28.28,0,0,0,.2.46h5.56a.28.28,0,0,0,.19-.46,5.1,5.1,0,0,1-1-2.56V503.7L1037,525a.28.28,0,0,0,.27.21Zm81.35-10.32-.74,11a3.45,3.45,0,0,0,1.17,2.69.2.2,0,0,1,0,.23.2.2,0,0,1-.2.14h-7.14a.21.21,0,0,1-.21-.15.22.22,0,0,1,.07-.24,4.87,4.87,0,0,0,1.77-3.63L1122,500.8c.16-1.36-1-3.08-1.39-3.64a.24.24,0,0,1,0-.23.22.22,0,0,1,.19-.12h15.12a.22.22,0,0,1,.19.12.24.24,0,0,1,0,.23c-.37.57-1.55,2.29-1.39,3.64l1.67,24.12a4.91,4.91,0,0,0,1.76,3.63.22.22,0,0,1-.13.39h-7.14a.22.22,0,0,1-.21-.14.22.22,0,0,1,.05-.23,3.48,3.48,0,0,0,1.17-2.69l-.74-11Zm1-14.16-.67,9.92h4.94l-.67-9.92Zm-54-3.13h-13.57a.28.28,0,0,0-.26.37l1.07,3.4a.28.28,0,0,0,.41.15,3.11,3.11,0,0,1,1.72-.51h1.79v21.23a5,5,0,0,1-1,2.51.28.28,0,0,0,.2.46h5.8a.28.28,0,0,0,.2-.46,5.1,5.1,0,0,1-1-2.51V501h1.79a3.17,3.17,0,0,1,1.73.51.27.27,0,0,0,.4-.15l1.07-3.4A.29.29,0,0,0,1072.51,497.61Zm-21.42,23.75V510h2.69a3.4,3.4,0,0,1,1.86.5.27.27,0,0,0,.41-.14l1.19-3.63a.28.28,0,0,0-.26-.37h-5.89V501h3.27a3.09,3.09,0,0,1,1.76.51.28.28,0,0,0,.41-.15l1-3.41a.28.28,0,0,0-.26-.36h-11.17a.29.29,0,0,0-.23.44,5.15,5.15,0,0,1,1.07,2.53v21.68a5.79,5.79,0,0,1-1.07,2.54.28.28,0,0,0,.24.42h10.78a.28.28,0,0,0,.27-.21l.91-3.61a.27.27,0,0,0-.36-.33,5.75,5.75,0,0,1-2,.29Zm28,0V510h2.69a3.4,3.4,0,0,1,1.86.5.27.27,0,0,0,.41-.14l1.19-3.63a.28.28,0,0,0-.26-.37h-5.89V501h3.27a3.09,3.09,0,0,1,1.76.51.27.27,0,0,0,.41-.15l1-3.41a.27.27,0,0,0-.26-.36h-11.17a.28.28,0,0,0-.22.44,5.22,5.22,0,0,1,1.06,2.53v21.68a5.79,5.79,0,0,1-1.07,2.54.28.28,0,0,0,.24.42H1085a.28.28,0,0,0,.27-.21l.91-3.61a.27.27,0,0,0-.36-.33,5.67,5.67,0,0,1-1.94.29Zm29.55-5v5.82a5.61,5.61,0,0,0,1.06,2.58.28.28,0,0,1-.23.44h-5.77a.28.28,0,0,1-.24-.44,5.5,5.5,0,0,0,1.06-2.58V500.52a6.29,6.29,0,0,0-1.07-2.48.28.28,0,0,1,.25-.43h7.39a14.81,14.81,0,0,1,3.29.37,4.79,4.79,0,0,1,3.5,4.45c.51,4.94-3.44,9-3.44,9l3.35,11.12a5.51,5.51,0,0,0,1.23,2.16.28.28,0,0,1-.21.47h-5.59a.28.28,0,0,1-.26-.4,3.38,3.38,0,0,0,.19-2.17l-2.17-8.27Zm0-15.56v10.7c4.07-2.9,4.88-5.6,4.61-8.2s-2.34-2.5-2.34-2.5Zm-16.38,15.56v5.82a5.61,5.61,0,0,0,1.06,2.58.28.28,0,0,1-.23.44h-5.77a.28.28,0,0,1-.24-.44,5.5,5.5,0,0,0,1.06-2.58V500.52a6.29,6.29,0,0,0-1.07-2.48.28.28,0,0,1,.25-.43h7.39a14.81,14.81,0,0,1,3.29.37,4.79,4.79,0,0,1,3.5,4.45c.51,4.94-3.44,9-3.44,9l3.35,11.12a5.51,5.51,0,0,0,1.23,2.16.28.28,0,0,1-.21.47h-5.59a.28.28,0,0,1-.26-.4,3.38,3.38,0,0,0,.19-2.17l-2.17-8.27Zm0-15.56v10.7c4.07-2.9,4.88-5.6,4.61-8.2s-2.34-2.5-2.34-2.5ZM1068.82,486a.18.18,0,0,0-.18.13.19.19,0,0,0,.07.22.91.91,0,0,1,.33.83v6.28a.91.91,0,0,1-.33.83.19.19,0,0,0-.07.22.18.18,0,0,0,.18.13h3.12a5.91,5.91,0,0,0,1.21-.12,3.83,3.83,0,0,0,2.9-2.25,4.48,4.48,0,0,0,0-4,3.76,3.76,0,0,0-2.34-2.05,5.66,5.66,0,0,0-1.78-.26Zm1.82,1.33h.44c.44,0,.9,0,1.34,0a2.31,2.31,0,0,1,2.23,1.85,4.24,4.24,0,0,1-.08,2.53,2.26,2.26,0,0,1-2.12,1.58c-.44,0-.9,0-1.33,0h-.48Zm-25.43,5.88a3.74,3.74,0,0,1-2.77.07,2.69,2.69,0,0,1-1.71-1.78,3.88,3.88,0,0,1-.11-1.87,2.72,2.72,0,0,1,1.52-2.13,3.36,3.36,0,0,1,2.21-.26,4.06,4.06,0,0,1,1.51.69l.16.11.09.06a.17.17,0,0,0,.2,0,.18.18,0,0,0,.09-.19l-.17-1.53a.19.19,0,0,0-.13-.17h0l-.09,0-.24-.06-.59-.13a6.9,6.9,0,0,0-2.83,0,4.41,4.41,0,0,0-2.66,1.76,4.23,4.23,0,0,0-.78,2.68,4.18,4.18,0,0,0,1.69,3.41,4.7,4.7,0,0,0,2.67.91h.4a11.22,11.22,0,0,0,2.83-.41l.21-.06.07,0a.21.21,0,0,0,.14-.22,1.16,1.16,0,0,0,0-.18,1.77,1.77,0,0,1,0-.3c0-.84,0-1.69,0-2.44a2.66,2.66,0,0,1,0-.28.74.74,0,0,1,.29-.45.21.21,0,0,0,.07-.22.21.21,0,0,0-.18-.13h-2a.19.19,0,0,0-.18.14.18.18,0,0,0,.07.21.77.77,0,0,1,.3.5,1.9,1.9,0,0,1,0,.37Zm36.46,1.54a3.92,3.92,0,0,0,1.56-.46,2.49,2.49,0,0,0,1.41-2.08,2.25,2.25,0,0,0-.66-1.84,2.44,2.44,0,0,0-.84-.54l-1.13-.46-.47-.18a4.6,4.6,0,0,1-.92-.45.76.76,0,0,1-.32-.57.81.81,0,0,1,.23-.63,1.24,1.24,0,0,1,.6-.31,3.16,3.16,0,0,1,2.23.38,1.58,1.58,0,0,1,.24.15l.14.08a.18.18,0,0,0,.2,0,.18.18,0,0,0,.08-.18l-.18-1.43a.18.18,0,0,0-.15-.16,7.66,7.66,0,0,0-2.22-.18,4.06,4.06,0,0,0-1.38.31,2.2,2.2,0,0,0-1.41,1.87,1.87,1.87,0,0,0,.81,1.87,5.33,5.33,0,0,0,.55.33,14.82,14.82,0,0,0,1.43.59l.39.14a5.91,5.91,0,0,1,.67.31,1,1,0,0,1,.44,1.17,1.17,1.17,0,0,1-.74.8,2.94,2.94,0,0,1-1.68.13,3.74,3.74,0,0,1-1.69-.74l-.08-.06,0,0a.17.17,0,0,0-.2,0,.17.17,0,0,0-.09.18l.19,1.56a.19.19,0,0,0,.15.16l.25.06a9.43,9.43,0,0,0,2,.24C1081.24,494.8,1081.46,494.79,1081.67,494.77Zm-57.3-8.75h-2a.19.19,0,0,0-.18.13.21.21,0,0,0,.07.22.8.8,0,0,1,.32.57,2.35,2.35,0,0,1,0,.26v6.28a.89.89,0,0,1-.33.82.21.21,0,0,0-.07.22.19.19,0,0,0,.18.13h5.55a.18.18,0,0,0,.18-.13l.47-1.43a.2.2,0,0,0-.06-.22.2.2,0,0,0-.22,0l-.36.22a2.36,2.36,0,0,1-1.21.27h-2.54V487.2a2.26,2.26,0,0,1,0-.26.77.77,0,0,1,.32-.57.19.19,0,0,0-.12-.35Zm10.77,4.55a.18.18,0,0,0,.16-.09l.6-.93a.2.2,0,0,0,0-.2.19.19,0,0,0-.17-.1h-2.89v-1.93h1.55l1,0a1.37,1.37,0,0,1,.71.24c.21.15.31,0,.31,0a.21.21,0,0,0,.08-.18l-.15-1.25a.19.19,0,0,0-.19-.17H1031a.19.19,0,0,0-.18.13.21.21,0,0,0,.07.22.82.82,0,0,1,.32.57,1.41,1.41,0,0,1,0,.22v6.36a.85.85,0,0,1-.33.78.2.2,0,0,0-.06.22.18.18,0,0,0,.18.13h5.39a.19.19,0,0,0,.18-.14l.37-1.4a.19.19,0,0,0-.07-.2.22.22,0,0,0-.28,0,1.76,1.76,0,0,1-1.18.41h-2.6v-2.79h2.29Zm19,0a.2.2,0,0,0,.17-.09l.6-.93a.19.19,0,0,0-.16-.3h-2.89v-1.93h1.55l1,0a1.41,1.41,0,0,1,.72.24c.2.15.31,0,.31,0a.2.2,0,0,0,.07-.18l-.14-1.25a.19.19,0,0,0-.19-.17h-5.11a.19.19,0,0,0-.18.13.19.19,0,0,0,.07.22.82.82,0,0,1,.32.57,1.41,1.41,0,0,1,0,.22v6.36a.87.87,0,0,1-.33.78.22.22,0,0,0-.07.22.19.19,0,0,0,.18.13h5.39a.2.2,0,0,0,.19-.14l.37-1.4a.19.19,0,0,0-.07-.2.24.24,0,0,0-.29,0,1.73,1.73,0,0,1-1.18.41h-2.59v-2.79h2.28Zm46.53-.2a4.54,4.54,0,1,1-4.54-4.49A4.34,4.34,0,0,1,1100.68,490.37Zm-1.64,0a2.83,2.83,0,0,0-2.91-3.16,2.86,2.86,0,0,0-2.88,3.16,2.91,2.91,0,0,0,2.88,3.17A2.94,2.94,0,0,0,1099,490.37Zm-39,3.09v-5l5.24,6.27a.19.19,0,0,0,.18.07.19.19,0,0,0,.18-.21v-7.4a.9.9,0,0,1,.33-.78.2.2,0,0,0,.06-.22.18.18,0,0,0-.18-.13h-1.78a.19.19,0,0,0-.18.13.2.2,0,0,0,.06.22.9.9,0,0,1,.34.78v4l-4.17-5a.38.38,0,0,0-.28-.15h-1.34a.19.19,0,0,0-.18.13.19.19,0,0,0,0,.21,1,1,0,0,1,.3.63,1.51,1.51,0,0,1,0,.3v6.17a.92.92,0,0,1-.33.83.21.21,0,0,0-.07.22.19.19,0,0,0,.18.13h1.78a.18.18,0,0,0,.18-.13.19.19,0,0,0-.07-.22A.92.92,0,0,1,1060.09,493.46Zm44.69,1.21a.19.19,0,0,0,.18-.14.19.19,0,0,0-.07-.21.94.94,0,0,1-.33-.83V491h2a.18.18,0,0,0,.15-.07l.75-.93a.2.2,0,0,0,0-.21.19.19,0,0,0-.17-.11h-2.78v-2.31h1.55c.32,0,.66,0,1,0a1.29,1.29,0,0,1,.71.24c.21.15.31,0,.31,0a.18.18,0,0,0,.08-.18l-.14-1.25a.19.19,0,0,0-.19-.17h-5.11a.18.18,0,0,0-.18.13.2.2,0,0,0,.06.22.75.75,0,0,1,.32.57,2.26,2.26,0,0,1,0,.26v6.29a.91.91,0,0,1-.32.82.19.19,0,0,0-.07.22.18.18,0,0,0,.18.13h2Z" transform="translate(-992.18 -485.88)"/></svg>