<svg id="Lockup" xmlns="http://www.w3.org/2000/svg" viewBox="0 0 148 100"><defs><style>.cls-1{fill:#fff;}</style></defs><g id="Wordmark_Stacked" data-name="Wordmark Stacked"><path class="cls-1" d="M44.77,75.88H49.5L43.66,57.82h-7.8l1.22,2.11L31.92,75.88h4.64l.6-2,6.5-1.74Zm-6.36-6.29,2.26-7.68,1.92,6.54Z"/><polygon class="cls-1" points="65.01 57.82 60.21 64.68 55.45 57.82 51.26 57.82 51.26 75.87 55.73 75.87 55.73 65.69 60.21 71.85 64.68 65.69 64.68 75.87 69.15 75.87 69.15 57.82 65.01 57.82"/><path class="cls-1" d="M104.22,65.2l-2.07,3.58h4.93c-.28,1.83-1.62,3.18-4.31,3.18s-4.47-1.73-4.47-5.14c0-3.13,1.5-5.09,4.47-5.09a4.07,4.07,0,0,1,3.8,2l4.35-1.16c-1.06-3.47-4.47-5-8.43-5-4.47,0-8.95,3-8.95,9.34s4.31,9.27,9.23,9.27c6.14,0,9.44-4.86,8.71-11Z"/><rect class="cls-1" x="86.48" y="57.82" width="4.72" height="18.05"/><polygon class="cls-1" points="83.93 61.95 83.93 57.82 72.59 57.82 72.59 75.87 77.31 75.87 77.31 69.83 80.96 69.83 83.35 65.7 77.31 65.7 77.31 61.95 83.93 61.95"/><polygon class="cls-1" points="23.68 71.74 23.68 68.64 29.47 68.64 29.47 64.71 23.68 64.71 23.68 61.95 30.81 61.95 30.81 57.82 1 57.82 3.38 61.95 8.61 61.95 8.61 79.4 13.34 80.67 13.34 61.95 20.98 61.95 18.96 65.45 18.96 75.87 29.36 75.87 30.87 71.74 23.68 71.74"/><polygon class="cls-1" points="147 57.82 124.24 57.82 124.24 63.78 118.49 65.32 118.49 57.82 113.77 57.82 113.77 75.88 118.49 75.88 118.49 69.64 124.24 68.1 124.24 75.88 128.96 75.88 128.96 65.32 127.02 61.95 134.66 61.95 134.66 80.67 139.39 79.4 139.39 61.95 144.62 61.95 147 57.82"/><path class="cls-1" d="M124.25,87.88c-2.29-.5-3-.62-3.69-.78-1.17-.28-1.79-.67-1.79-1.51s1.06-1.46,2.46-1.46a3,3,0,0,1,3.12,1.79l4.37-1.17c-.39-2.35-3-4.36-7.49-4.36-4.08,0-7.1,1.84-7.1,5.59,0,2.68,1.62,4.41,4.87,5.08l3,.62c1.56.33,2.29.78,2.29,1.62,0,1-.62,1.9-2.85,1.9a3.54,3.54,0,0,1-3.69-2.68l-4.45,1.19c.8,3.14,3.2,5.29,8.19,5.29,3.92,0,7.55-2,7.55-6.26C129,89.78,127.15,88.49,124.25,87.88Z"/><path class="cls-1" d="M107.36,92a3.8,3.8,0,0,1-4.11,2.84c-2.8,0-4.53-2-4.53-5.14s1.68-5.09,4.53-5.09A3.82,3.82,0,0,1,107,87l4.45-1.19c-1.17-4-4.47-5.42-8.32-5.42-4.81,0-9.22,3-9.22,9.33S98.11,99,103,99c4.08,0,7.55-1.62,8.67-5.87h0Z"/><path class="cls-1" d="M64.18,92a3.81,3.81,0,0,1-4.12,2.84c-2.79,0-4.52-2-4.52-5.14s1.67-5.09,4.52-5.09A3.82,3.82,0,0,1,63.82,87l4.46-1.19c-1.18-4-4.47-5.42-8.33-5.42-4.8,0-9.22,3-9.22,9.33S54.92,99,59.84,99c4.08,0,7.54-1.62,8.66-5.87h0Z"/><rect class="cls-1" x="86.48" y="80.67" width="4.72" height="18.05"/><polygon class="cls-1" points="84.74 80.67 68.13 80.67 70.52 84.8 74.08 84.8 74.08 98.72 78.8 98.72 78.8 84.8 82.36 84.8 84.74 80.67"/><polygon class="cls-1" points="34.62 80.67 18 80.67 20.39 84.8 23.95 84.8 23.95 98.72 28.67 98.72 28.67 84.8 32.23 84.8 34.62 80.67"/><path class="cls-1" d="M45.77,98.72h4.72l-5.84-18h-7.8l1.22,2.11L32.91,98.72h4.64l.6-2,6.51-1.74ZM39.4,92.43l2.26-7.68,1.92,6.54Z"/><polygon class="cls-1" points="129 80.87 129.4 80.87 129.4 81.97 129.65 81.97 129.65 80.87 130.05 80.87 130.05 80.67 129 80.67 129 80.87"/><polygon class="cls-1" points="131.04 81.59 130.68 80.67 130.32 80.67 130.32 81.97 130.55 81.97 130.55 80.95 130.56 80.95 130.95 81.97 131.13 81.97 131.52 80.95 131.52 80.95 131.52 81.97 131.76 81.97 131.76 80.67 131.4 80.67 131.04 81.59"/></g><g id="Bug"><path class="cls-1" d="M82.38,19.9c-1.47-.9-1-.27-.38.32,2.64,2.48,4.38,4.93,5,7,.42,1.37,0,2.21-.59,1a13.06,13.06,0,0,0-3-3.84c-.77-.62-.75-.32-.38.17,1.5,2,2.39,4,1.5,5.59-1.47,2.56-7.39,1.91-13.2-1.44-7.39-4.27-12-10.11-10.29-13.1.73-1.3,2.71-1.84,5-1.65.5,0,.47-.11,0-.23-2.79-.73-6.08,0-7.25,2C56.77,19.45,61.74,26.33,70,31.1a37.62,37.62,0,0,0,6.74,3c1.64.54,1.4,1.2-1.41.66a34.68,34.68,0,0,1-10.23-4.2c-1-.6-1.15-.36-.4.38a21.27,21.27,0,0,0,3.64,2.68c8.21,4.89,18.45,6.17,21.4,1.06C92.38,30.16,87.65,23.12,82.38,19.9Z"/><path class="cls-1" d="M56,2l4.43,7.67h9.19V24.81c2.31,1.87,6.15,3.85,8.76,4V9.67h9.19L92,2Z"/></g></svg>