<svg id="Layer_1" data-name="Layer 1" xmlns="http://www.w3.org/2000/svg" viewBox="0 0 145.93 98.46"><defs><style>.cls-1{fill:#f1f0f0;fill-rule:evenodd;}</style></defs><path class="cls-1" d="M1017.34,409.84,1041,439.41a2,2,0,0,0,1.58.76h22.78a.47.47,0,0,0,.37-.77l-48-59.95a.48.48,0,0,0-.85.3v28.82A2,2,0,0,0,1017.34,409.84Zm73.76-1.26V379.75a.48.48,0,0,0-.85-.3l-31.52,39.36a.48.48,0,0,0,.37.77h22.78a2,2,0,0,0,1.58-.76l7.2-9A2.07,2.07,0,0,0,1091.1,408.58Zm27.1,51.95h-5.34a.38.38,0,0,1-.38-.39v-2.86a.38.38,0,0,1,.38-.38h13a1,1,0,0,1,.79.38l2.3,2.86a.24.24,0,0,1-.19.38H1122v16.33a.37.37,0,0,1-.38.38h-3.05a.38.38,0,0,1-.39-.38Zm-131,16.32,15.65-19.57a.23.23,0,0,0-.18-.38h-3.92a1,1,0,0,0-.78.38l-11.11,13.88V457.28a.38.38,0,0,0-.38-.38H983.4a.38.38,0,0,0-.38.38v19.57a.38.38,0,0,0,.38.38h3A1,1,0,0,0,987.18,476.85Zm15.57-6.73-5.38,6.73a1,1,0,0,1-.79.38h-3.92a.23.23,0,0,1-.18-.38l15.35-19.19a2,2,0,0,1,1.58-.76h2.51a.38.38,0,0,1,.38.38v19.57a.38.38,0,0,1-.38.38h-3a1,1,0,0,1-.79-.38Zm2.12-3.05,3.61,4.5v-9Zm73.57-9.79a1,1,0,0,0-.79-.38h-3a.38.38,0,0,0-.38.39v19.56a.38.38,0,0,0,.38.38h3a1,1,0,0,0,.79-.37l5.38-6.74,5.39,6.74a1,1,0,0,0,.79.37h3.92a.23.23,0,0,0,.18-.38Zm3.27,9.79-3.61,4.5v-9Zm-52.43,0A10.69,10.69,0,1,1,1040,477.74,10.68,10.68,0,0,1,1029.28,467.06Zm3.82,0a6.87,6.87,0,1,0,6.87-7A7,7,0,0,0,1033.1,467.06Zm72.9-9.78v13.88l-11.11-13.88a1,1,0,0,0-.79-.38h-3a.39.39,0,0,0-.39.38v9.43a1,1,0,0,0,.23.63l3.18,4a.24.24,0,0,0,.42-.15V463l11.11,13.88a1,1,0,0,0,.79.38h3a.38.38,0,0,0,.38-.38V457.28a.38.38,0,0,0-.38-.38h-3.06A.38.38,0,0,0,1106,457.28Zm-35.86,0v4.24a1,1,0,0,1-.22.63l-4.82,6,7,8.68a.24.24,0,0,1-.19.38H1068a1,1,0,0,1-.79-.38l-6.76-8.45a.38.38,0,0,1,0-.47l5.92-7.4h-8.77v16.32a.38.38,0,0,1-.38.38h-3.06a.38.38,0,0,1-.38-.38V457.28a.38.38,0,0,1,.38-.38h15.65A.38.38,0,0,1,1070.14,457.28Zm-53.11,20h9.08a1,1,0,0,0,.79-.37l2.29-2.87a.24.24,0,0,0-.19-.38h-8.53V457.29a.38.38,0,0,0-.38-.39H1017a.39.39,0,0,0-.39.39v19.56A.38.38,0,0,0,1017,477.23Zm108.1-1.69h.62v1.69h.25v-1.69h.61v-.21h-1.48Zm2.21-.21H1127v1.9h.24v-1.68h0l.67,1.68h.14l.68-1.68h0v1.68h.24v-1.9h-.39l-.6,1.54Z" transform="translate(-983.02 -379.28)"/></svg>