<svg id="Layer_1" data-name="Layer 1" xmlns="http://www.w3.org/2000/svg" xmlns:xlink="http://www.w3.org/1999/xlink" viewBox="0 0 144.49 94.5"><defs><style>.cls-1{fill:none;}.cls-2{clip-path:url(#clip-path);}.cls-3{fill:#f1f0f0;fill-rule:evenodd;}</style><clipPath id="clip-path" transform="translate(-992.9 -462.64)"><rect class="cls-1" x="992.9" y="462.64" width="144.49" height="94.5"/></clipPath></defs><g class="cls-2"><path class="cls-3" d="M1054.82,484.7a13,13,0,0,0,9.28,3.85,12.87,12.87,0,0,0,5-.92,11.83,11.83,0,0,0,6.55-6.5,12.42,12.42,0,0,0,.87-3.44,33.83,33.83,0,0,0,.07-3.5h-12.42l-2.2,4.52h8.85a6,6,0,0,1-2.32,3.49,7,7,0,0,1-4.32,1.32,7.42,7.42,0,0,1-3-.64,7.75,7.75,0,0,1-2.43-1.71,7.9,7.9,0,0,1-1.62-2.52,8,8,0,0,1-.58-3.09,8.15,8.15,0,0,1,.61-3.09,7.93,7.93,0,0,1,1.65-2.51,7.45,7.45,0,0,1,2.43-1.66,7.27,7.27,0,0,1,3-.59,7.57,7.57,0,0,1,3.87,1,6.53,6.53,0,0,1,2.6,2.8l4.9-2.34a11.35,11.35,0,0,0-4.52-4.77,13.46,13.46,0,0,0-6.8-1.74,13,13,0,0,0-5.1,1,13.17,13.17,0,0,0-4.19,2.76,13.31,13.31,0,0,0-2.84,4.11,12.2,12.2,0,0,0-1.07,5,12.43,12.43,0,0,0,1,5A13.3,13.3,0,0,0,1054.82,484.7Zm29.4,3.22a8.78,8.78,0,0,1-3.15-2.11,9.42,9.42,0,0,1-2-3.29,12.7,12.7,0,0,1-.67-4.29l.07-15.47H1084l-.07,15.21a6.16,6.16,0,0,0,1.16,4,4.78,4.78,0,0,0,6.89,0,6.15,6.15,0,0,0,1.21-4l.07-15.26h5.46l-.08,15.57a12.35,12.35,0,0,1-.72,4.28,9.24,9.24,0,0,1-2,3.28,8.56,8.56,0,0,1-3.17,2.07,11.5,11.5,0,0,1-4.24.71A11.64,11.64,0,0,1,1084.22,487.92Zm39.24-6.61a5.86,5.86,0,1,0-5.88-5.86A5.87,5.87,0,0,0,1123.46,481.31Zm0-9a3.14,3.14,0,1,1-3.14,3.14A3.15,3.15,0,0,1,1123.46,472.31Zm7.07,8.66V469.69h6.86v2.56h-4.08v2.43h3.57l-.69,2.48h-2.88V481Zm-5.74,18.33c0,2,2.13,2.57,4.6,3.19h0c3.4.86,7.63,1.93,7.64,7.51,0,4.89-3.64,8-9.27,8-4.22,0-7.65-2-9-5.14l4.83-2.32a4.33,4.33,0,0,0,4.38,2.91c2.13,0,3.51-1.12,3.51-2.84,0-2.09-2.15-2.64-4.63-3.29h0c-3.54-.92-7.56-2-7.56-7.52,0-4.53,3.62-7.71,8.8-7.71,4,0,7.17,1.93,8.43,5.16l-4.83,2.31a3.61,3.61,0,0,0-3.75-2.88C1126,496.72,1124.79,497.71,1124.79,499.3Zm-52.66,18.05V494.78l-1.19-2.49h6.74L1089.35,509V492.29h5.21v25.06h-5.44l-11.77-16.48v16.48Zm38.35-24a15.52,15.52,0,0,0-5-1H1097v25.06h8.51a13,13,0,0,0,9-3.6,12.19,12.19,0,0,0,3.75-8.88,12.07,12.07,0,0,0-1-4.93,12.53,12.53,0,0,0-2.74-4A13.09,13.09,0,0,0,1110.48,493.33Zm1.72,14.46a7.34,7.34,0,0,1-3.92,3.95,7.31,7.31,0,0,1-2.91.58h-3V497.4h3a7.15,7.15,0,0,1,2.91.6,7.28,7.28,0,0,1,2.35,1.59,7.19,7.19,0,0,1,1.56,2.37,7.55,7.55,0,0,1,.57,2.91A7.45,7.45,0,0,1,1112.2,507.79Zm-95.42,4.66,9.45,0v4.85h-14.86V492.29h14.86v4.88h-9.45v5.07h8.63l-1.32,4.71h-7.31Zm52.9-15.28v-4.88h-14.86v25.06h14.86V512.5l-9.45,0V507h7.31l1.32-4.71h-8.63v-5.07Zm-61.53-9.27H992.9l1.26-2.59v-20l-1.26-2.59h6.65V483h10ZM992.9,517.35h15.25l1.38-4.9h-10V492.21H992.9l1.26,2.6v20ZM1016.78,483l9.45.05v4.85h-14.86V462.84h14.86v4.88h-9.45v5.07h8.63l-1.32,4.71h-7.31Zm99.12.05-9.45-.05v-5.5h7.3l1.33-4.71h-8.63v-5.07h9.45v-4.88H1101V487.9h14.86Zm-80.53,0-1.88,4.89H1028l8.87-21.87-1.62-3.27h7.68l10,25.14h-5.63l-1.94-4.89Zm8.21-4.79-3.12-8.42-3.24,8.42Zm-6.1,34.25-.1,0-.1,0a8.09,8.09,0,0,1-2.43-1.71,7.84,7.84,0,0,1-1.62-2.53,8.3,8.3,0,0,1,0-6.17,7.82,7.82,0,0,1,1.65-2.51,7.56,7.56,0,0,1,2.43-1.66,7.44,7.44,0,0,1,3-.6,7.68,7.68,0,0,1,3.87,1,6.59,6.59,0,0,1,2.61,2.79l4.89-2.33a11.18,11.18,0,0,0-4.52-4.77,13.56,13.56,0,0,0-6.79-1.75,12.88,12.88,0,0,0-5.1,1,13.17,13.17,0,0,0-7,6.88,12.35,12.35,0,0,0-1.07,5,12.53,12.53,0,0,0,1,5,13.4,13.4,0,0,0,2.76,4.14,13,13,0,0,0,3.92,2.71Zm2.8-8.77h12.42a33.83,33.83,0,0,1-.07,3.5,12.42,12.42,0,0,1-.87,3.44,11.83,11.83,0,0,1-6.55,6.5,12.91,12.91,0,0,1-5,.92,13.66,13.66,0,0,1-3.29-.41l1.2-4.94a8,8,0,0,0,2.15.32,7.1,7.1,0,0,0,4.32-1.32,5.94,5.94,0,0,0,2.31-3.49h-8.84Z" transform="translate(-992.9 -462.64)"/><path class="cls-3" d="M1038.55,510.64c-.24.47-7.34,14.85-10,20.94-.85,1.91-1.83,4-2.81,6.18-2.17,4.69-4.36,9.45-5.19,12.1a.5.5,0,0,1-.26.29c-.18.11-.41.25-.66,1a9.51,9.51,0,0,1-1.25,2.23s-1.11-7.62-2-12.18c-4.46,5.1-6.22,7.35-7.75,9.3h0c-.4.51-.79,1-1.21,1.53a7.69,7.69,0,0,0-.69,1.06c-.23.4-.39.68-.71.78s-1.18,1-1.85,1.89a13.38,13.38,0,0,1-1.23,1.41c.15-.55,5.53-19.35,6.16-21.5.73-2.49,1.57-5.09,1.81-5.82.32-1,.8-1.51.72-1.15s-1,4.14-1.15,5.06c-.11.51,0,.51.19,0s2.18-5.78,2.54-6.17,2-2.76,2.83-3.86l.07-.11.09-.12c.39-.56.43-.62.27-.14-.1.32-.27.81-.47,1.39-.71,2.11-1.82,5.41-2,5.84-.72,1.86-.63,2.09-.54,2.3s.14.35-.4,1.66-4.15,11.8-4.15,11.8c1.73-2.13,3.17-3.93,4.36-5.44,1.62-2,2.81-3.54,3.72-4.57l.57-.1s.4-.74.56-1.06.21-.25.2.05h0a2.08,2.08,0,0,0,0,.25,67.53,67.53,0,0,0,1.22,8.61c1-2.58,4.94-11.7,7.1-16.65h0c.68-1.55,1.17-2.69,1.35-3.1a1.4,1.4,0,0,1,.58-.67,9.8,9.8,0,0,0,2.75-2.89c2.55-3.69,5.38-7.77,7.1-10.28C1038.77,510,1038.77,510.2,1038.55,510.64Zm18.79,21.74a9.74,9.74,0,0,1-2,5.08c-3.46,4.52-7.92,6.89-15.88,9.4-2.56.81-1.93.5-1.08.08l.22-.12c1.65-.82,3.2-1.68,4.36-2.32h0l.16-.09c.48-.26.23-.35-.09-.47s-.64-.22-.56-.52a60.21,60.21,0,0,1,2.67-6.73c1.29-2.91,2.43-5.19,2.82-5.9a1,1,0,0,1-1-.15.48.48,0,0,0-.46-.14c-.52.11-2.07.38-2.89.5s-.93.08,0-.24c3.4-1.26,5.86-2.08,8.28-2.08C1055.64,528.68,1057.34,530.33,1057.34,532.38Zm-8.1.46h0c-.49,1-1.17,2.45-2,4.45-1.51,3.65-2.29,5.74-2.45,6.17h0l0,.08c5.12-2.13,10-7.65,10-10.84,0-1.71-1.75-2.22-3.71-2.22a18.22,18.22,0,0,0-2,.17l.41.23h0c.37.19.53.27.43.52S1049.54,532.21,1049.24,532.84Zm23.15,8.69-.24-.54s-2.68-2.07-4.18-3.34l.25-.12c4.73-2.16,17.22-7.88,16.48-13.6-.42-3.24-5.46-4.23-8.84-4.23-8.67,0-21.15,3.21-24.4,4.39-.09,0-.08.06,0,0,7.3-1.27,28.15-3.67,28.46.76.22,3.39-11,9.74-14.06,11.26l-.26-.23c1.12-3.1,2.41-6.2,2.74-7l.06-.13c0-.14,0-.21-.11-.29l-.28-.17h0c-.17-.11-.35-.22-.44-.29s-.14-.15,0-.3a12.39,12.39,0,0,1,.76-1.07l.16-.22c.16-.22.08-.2-.1-.17h0a39.69,39.69,0,0,0-7.93,2.44c-.28.11-.26.16,0,.09l.16,0c1.34-.34,5.09-1.29,4.49.29-.07.19-.22.56-.42,1.1h0c-.4,1-1,2.66-1.83,4.77a1.29,1.29,0,0,0-1,.33,1.15,1.15,0,0,1-.35.22,2.07,2.07,0,0,1-.59,0h0c-.49,0-1,0-.62.32s.72.64,1.63,1.47c-1.36,3.65-3.49,9.46-3.49,9.46-.09.27.07.4.33.6a3,3,0,0,1,.63.65,7.18,7.18,0,0,1,.47.87h0c.32.66.57,1.19.81.51.12-.33.38-1.06.71-2h0c.89-2.58,2.32-6.69,3-8.17,0,0,3.52,2.81,4.61,3.64l1.36,1h0c1.69,1.3,3.19,2.45,4.65,3.4,1.27.82,1.59.86-.24-.64-3-2.5-2.65-2.49,1.62.37a3.55,3.55,0,0,0,1.68.75c.4,0,.62.06,1.87.86.95.6,1.61,1,3.23,2.16,2.12,1.48,2.51,1.38.5-.24S1072.39,541.53,1072.39,541.53Zm17.7-16.76c6.87-1.69,25.66-3.13,34-2.6.33,0,.23.07,0,.1l-2.15.16c-2.89.21-6.4.47-9.54.75a1.9,1.9,0,0,0-1.06.45,1.36,1.36,0,0,1-.66.32c-1.41.12-2.42.22-6.09.67-2.17,6-3.78,11.06-5,14.94-.22.68-.42,1.33-.61,1.94s-1-.24-1.26-.75a.17.17,0,0,1,0-.18c.63-1.77.36-2.2-.28-1-.19.36-.26.32-.33.24s-.22-.22,0-.8.37-1.08.56-1.62a9.82,9.82,0,0,0,.64-2.17c0-.18,0-.35.19-.63a8.06,8.06,0,0,0,.36-.79c.11-.27.48-1.31,1-2.63.74-2,1.71-4.76,2.28-6.24a76.52,76.52,0,0,0-7.7,1.46c-.43.86-1.43,3.56-1.87,4.74a18,18,0,0,1,4.1-.42c.23.06.36.18.06.35a3.46,3.46,0,0,1-.43.19c-.23.09-.43.16-.44.24s-.34.38-.34.38-.63.35-.63.66c0,.1-.26.17-.74.3a21.68,21.68,0,0,0-2.57.85s-1.46,4.32-2,5.78c-.11.3-.26.73-.41,1.17-.22.65-.45,1.31-.56,1.58v0c-.12.31-.21.53-.44.2-.07-.11-.22-.47-.37-.83h0c-.09-.23-.19-.45-.27-.63a1.21,1.21,0,0,0-.39-.42c-.21-.17-.4-.32-.31-.57l0-.15c.28-.81,1.33-3.91,2.07-5.74a1.64,1.64,0,0,0-.72-1.07c-.18-.16-.32-.28-.28-.36a12.72,12.72,0,0,1,2-.9s1.64-4.1,1.86-4.68c.11-.3-.08-.4-.32-.52a.82.82,0,0,1-.54-.57c0-.18-.29-.36-.52-.53a1.18,1.18,0,0,1-.41-.38C1089.83,525,1089.84,524.84,1090.09,524.77Zm-59.11,11a1,1,0,0,0-.62.48,2.43,2.43,0,0,1-.38.51.62.62,0,0,1-.38.15c-.16,0-.32.07-.38.22l-.66,1.54h0c-1.1,2.57-2.71,6.32-3.22,8.13a.58.58,0,0,0,.27.63s.35-1,.5-.9.14.51.13.89,0,.68.1.74c.4.23.76.4,1-.11.1-.24.3-.75.57-1.45.46-1.21,1.13-3,1.88-4.77a42.29,42.29,0,0,1,3.11-6.16c.54-.78-.95-.25-1.7,0Zm8.7-1.57h0c-.61,1.1-1.45,2.62-2.19,4.07-1.41,2.78-3,6-3,6,1.92-.78,3.77-1.33,5.12-1.73l.38-.12c1.36-.41-2,1.3-2.36,1.49-.18.09-.12.21,0,.19l.59-.11h0l.75-.14a10.78,10.78,0,0,1-.86,1.32c-1.55.54-3.93,1.27-5.65,1.8-.9.28-1.61.5-1.92.61s-.25.06,0-.1.55-.34.94-.57h0a6.65,6.65,0,0,0,1.31-.86c0-.07-.23,0-.42,0s-.35,0-.37,0a2.22,2.22,0,0,1-.19-.85c.05-.15.29-.62.58-1.21h0c.42-.83.95-1.88,1.22-2.56,1.16-2.82,2.73-6,3.17-6.82a2.26,2.26,0,0,1,1.15-1.06l.11,0c.34-.17,2.55-1,2.27-.51-.15.29-.38.71-.66,1.21Zm45.09-3.64a3.12,3.12,0,0,0-.42.63,3.2,3.2,0,0,1-.7.94l-.39.2c-.34.17-.75.37-.82.55-.76,2-2.84,7.78-2.91,8.52,0,.31.11.39.33.49a.69.69,0,0,0,.66-.08.63.63,0,0,1,.55-.08c.13.06.11.29.08.51a.82.82,0,0,0,0,.42c.17.31.34.09.54-.54.52-1.68,1.91-5.9,2.61-7.62l.11-.29,1.55-3.78C1086.12,530,1085.1,530.18,1084.77,530.51Zm42.93-8.31h.52v1.2h.32v-1.2h.52v-.3h-1.36Zm2.07-.3h-.34v1.5h.31v-1l.52.81h0l.52-.81v1h.31v-1.5h-.33l-.51.8Z" transform="translate(-992.9 -462.64)"/></g></svg>